<?xml version="1.0" encoding="utf-8"?>
<!-- Generator: Adobe Illustrator 24.0.0, SVG Export Plug-In . SVG Version: 6.00 Build 0)  -->
<svg version="1.1" id="Layer_1" xmlns="http://www.w3.org/2000/svg" xmlns:xlink="http://www.w3.org/1999/xlink" x="0px" y="0px"
	 viewBox="0 0 300 300" style="enable-background:new 0 0 300 300;" xml:space="preserve">
<style type="text/css">
	.st0{fill:#FFFFFF;}
</style>
<title>Asset 1</title>
<g>
	<path class="st0" d="M139.7,170.4c-0.8-0.1-1.7-0.2-2.5-0.3c-4.7-0.5-9.4-1.3-14-2.4c-6.3-1.6-12.3-4.1-17.7-7.8
		C99,155.4,95,149.3,92.6,142c-1.3-4.1-1.9-8.3-2.3-12.6c-0.3-4.6-0.1-9.2,0.6-13.8c1.1-7.3,4.2-13.6,8.9-19.1
		c0.3-0.3,0.5-0.6,0.8-0.9c0,0,0-0.1,0.1-0.2c-2.8-9-1.5-17.8,1.5-26.7c1.4,0.2,2.8,0.3,4.2,0.5c8.2,1.2,15.7,4.4,22.3,9.4
		c0.5,0.4,0.9,0.4,1.5,0.3c5.5-1.4,11-2.3,16.6-2.7c5.3-0.4,10.6-0.4,15.9,0.1c5,0.4,9.9,1.1,14.7,2.2c0.5,0.1,0.9,0,1.4-0.3
		c3.8-2.5,7.7-4.7,11.8-6.5c3.3-1.4,6.8-2.1,10.3-2.5c1.4-0.2,2.8-0.3,4.4-0.4c0.4,1.4,0.9,2.8,1.2,4.2c1.2,5.1,1.8,10.2,1.4,15.5
		c-0.1,1.7-0.4,3.3-0.7,4.9c-0.1,0.5-0.1,0.8,0.3,1.2c5.9,6.4,9,14,10.2,22.5c1.2,8.3,0.6,16.4-1.6,24.4c-2.2,8.2-7,14.6-13.9,19.5
		c-6,4.2-12.5,6.9-19.7,8.1c-3.2,0.6-6.4,1-9.7,1.2c-0.3,0-0.6,0.1-1.2,0.2c0.5,0.3,0.8,0.4,1,0.6c1.7,1.1,3.4,2.1,5.1,3.2
		c3.5,2.4,5.6,5.7,6.5,9.8c0.5,2.1,0.8,4.2,0.8,6.4c0,4.8,0,9.5,0,14.3c0.1,4,0.2,7.9,0.4,11.9c0,0.4,0.2,0.8,0.4,1.2
		c1.5,2.3,3.5,4.1,5.8,5.5c0.2,0.1,0.5,0.2,0.7,0.4c1,0.7,1,2.1-0.1,2.7c-0.5,0.3-1,0.4-1.5,0.5c-4.8,0.4-9.1-0.7-12.8-4
		c-1.7-1.5-2.5-3.5-2.7-5.7c-0.1-0.8-0.1-1.5-0.1-2.3c0-6.9,0-13.9,0-20.8c0-0.8,0-1.5-0.1-2.3c-0.2-1.9-0.9-3.4-2.5-4.5
		c-0.9-0.6-1.7-1.2-2.9-1.4c0,0.3-0.1,0.6-0.1,0.8c0,9.7,0,19.5,0,29.2c0,2.3,0.1,4.7,0.7,6.9c0.3,1.2,0.7,2.3,1.5,3.2
		c1.1,1.4,1.8,2.9,2.1,4.6c-0.5,0.4-1,0.5-1.6,0.4c-2.8-0.5-5.5-1.1-8-2.7c-1.6-1.1-2.8-2.5-3.6-4.3c-1.6-3.3-2.4-6.9-2.4-10.5
		c0-9.3,0-18.5,0-27.8c0-0.4,0-0.8,0-1.2c-2,0-4,0-6.1,0c0,0.4,0,0.8,0,1.2c0,9.2,0,18.3,0,27.5c0,3.4-0.6,6.7-1.8,9.9
		c-1.6,4.2-4.7,6.7-9,7.7c-1.1,0.3-2.2,0.3-3.3,0.5c-0.7,0.1-1.4-0.2-1.8-0.8c0.7-1.1,1.3-2.2,1.9-3.3c1.4-2.3,2-4.8,2.4-7.5
		c0.2-1.6,0.3-3.3,0.3-5c0-9.2,0-18.5,0-27.7c0-0.4,0-0.7,0-1.2c-2.2,0.8-3.9,1.9-4.6,4.1c-0.3,0.9-0.4,1.8-0.4,2.7
		c-0.1,2.2,0,4.4,0,6.6c0,5.3,0,10.7,0,16c0,1-0.1,2-0.2,3c-0.4,2.5-1.8,4.3-3.7,5.8c-2.4,1.8-5.2,2.7-8.2,2.9
		c-1.1,0.1-2.1,0.1-3.2,0c-0.6,0-1.1-0.2-1.6-0.4c-1.2-0.6-1.4-1.9-0.4-2.8c0.6-0.5,1.2-0.9,1.8-1.4c0.7-0.6,1.5-1.1,2.2-1.7
		c2-1.8,3.2-4,3.3-6.7c0.2-2.8-0.1-5.5-0.3-8.3c-0.2-2.7-0.5-5.4-0.2-8.2c0-0.1,0-0.2-0.1-0.3c-0.2,0-0.3,0-0.5,0.1
		c-6.7,2.1-13.2,1.3-19.5-1.7c-0.4-0.2-0.9-0.5-1.3-0.7c-2.6-1.2-4.7-3-6.3-5.4c-1.3-2-2.7-3.9-3.8-6c-1.9-3.6-4.5-6.7-7.5-9.5
		c-1.3-1.2-2.7-2.4-4-3.6c-0.2-0.2-0.4-0.3-0.5-0.5c-0.6-0.6-0.6-1.2,0-1.8c0.8-0.8,1.7-1.4,2.9-1.5c1.8-0.2,3.5,0.2,5.1,1
		c2.6,1.2,4.6,3.2,6.4,5.3c1.4,1.6,2.8,3.3,4.2,4.9c1.8,2.1,4,3.9,6.4,5.3c2.3,1.3,4.7,2.3,7.3,2.5c2.7,0.3,5.3-0.1,7.7-1.2
		c1.3-0.6,2.6-1.3,3.9-2c0.4-0.2,0.7-0.6,0.8-1c0.9-2.9,2.7-5.2,5-7.1c0.9-0.7,2-1.3,3.1-1.8c1.6-0.7,3.2-1.4,4.8-2.1
		C139.7,170.5,139.7,170.5,139.7,170.4z"/>
</g>
</svg>
