<svg xmlns="http://www.w3.org/2000/svg" viewBox="0 0 300 300">
  <defs>
    <style>.cls-1{fill:#8c8c8c;}.cls-2{fill:#ffffff;}</style>
  </defs>
  <title>Asset 3</title>
  <g id="Layer_2" data-name="Layer 2">
    <g id="Layer_1-2" data-name="Layer 1">
      <rect class="cls-1" width="300" height="300"/>
      <path class="cls-2" d="M218.3,100.79l13-12.41V85.66H186.34l-32,79.7-36.43-79.7H70.78v2.72l15.15,18.24a6.35,6.35,0,0,1,2.06,5.3v71.67a8.2,8.2,0,0,1-2.19,7.11L68.73,211.38v2.69h48.39v-2.72L100.05,190.7a8.46,8.46,0,0,1-2.35-7.11v-62l42.48,92.5h4.94l36.52-92.5v73.69c0,1.94,0,2.34-1.27,3.61l-13.14,12.71v2.73H231v-2.72l-12.66-12.4a3.77,3.77,0,0,1-1.45-3.62V104.4a3.74,3.74,0,0,1,1.44-3.61Z"/>
    </g>
  </g>
</svg>